<?xml version="1.0" encoding="UTF-8"?>
<svg width="16px" height="16px" viewBox="0 0 16 16" version="1.1" xmlns="http://www.w3.org/2000/svg" xmlns:xlink="http://www.w3.org/1999/xlink">
    <!-- Generator: Sketch 41.2 (35397) - http://www.bohemiancoding.com/sketch -->
    <title>close-icon</title>
    <desc>Created with Sketch.</desc>
    <defs></defs>
    <g id="Webflow-Assets" stroke="none" stroke-width="1" fill="none" fill-rule="evenodd">
        <g id="Assets" transform="translate(-755.000000, -499.000000)" fill="#D3D5DA">
            <path d="M761.573842,507 L757.295367,502.721525 C756.901544,502.327703 756.901544,501.68919 757.295367,501.295367 C757.68919,500.901544 758.327703,500.901544 758.721525,501.295367 L763,505.573842 L767.278475,501.295367 C767.672297,500.901544 768.31081,500.901544 768.704633,501.295367 C769.098456,501.68919 769.098456,502.327703 768.704633,502.721525 L764.426158,507 L768.704633,511.278475 C769.098456,511.672297 769.098456,512.31081 768.704633,512.704633 C768.31081,513.098456 767.672297,513.098456 767.278475,512.704633 L763,508.426158 L758.721525,512.704633 C758.327703,513.098456 757.68919,513.098456 757.295367,512.704633 C756.901544,512.31081 756.901544,511.672297 757.295367,511.278475 L761.573842,507 Z" id="close-icon"></path>
        </g>
    </g>
</svg>