<?xml version="1.0" encoding="UTF-8"?>
<svg width="12px" height="11px" viewBox="0 0 12 11" version="1.1" xmlns="http://www.w3.org/2000/svg" xmlns:xlink="http://www.w3.org/1999/xlink">
    <!-- Generator: Sketch 41.2 (35397) - http://www.bohemiancoding.com/sketch -->
    <title>heart-icon-red</title>
    <desc>Created with Sketch.</desc>
    <defs></defs>
    <g id="AppStarter" stroke="none" stroke-width="1" fill="none" fill-rule="evenodd">
        <g id="Webflow-Assets" transform="translate(-245.000000, -428.000000)" fill="#FF4876">
            <g id="Heart-Icons" transform="translate(235.000000, 418.000000)">
                <path d="M16.9561713,20.6303738 C16.4009732,21.0787643 15.5970687,21.0787643 15.0418706,20.6303738 C14.8835957,20.5031472 14.6195542,20.2808663 14.2842516,19.9832731 C13.7284142,19.4882594 13.1710767,18.9596111 12.6474944,18.408296 C12.106445,17.8480868 11.606862,17.2511574 11.1525096,16.6220058 C10.4730956,15.7797821 10.0720921,14.756295 10.0025789,13.6870205 C9.96418946,12.6927319 10.3558221,11.728411 11.0819985,11.0291552 C12.4259949,9.7474025 14.542834,9.65301016 16.0012713,10.8097991 C17.4591363,9.65132058 19.5772758,9.74577091 20.9205441,11.0291552 C21.6431543,11.7263452 22.0337204,12.6863374 21.9977133,13.6767839 C21.9312156,14.7483445 21.5302363,15.7744791 20.8485328,16.6176186 C20.393082,17.2487537 19.8917135,17.8471859 19.3482971,18.408296 C18.8247149,18.9574175 18.2696277,19.4882594 17.7137903,19.9832731 C17.3784877,20.2808663 17.1136961,20.502416 16.9561713,20.6303738 Z" id="heart-icon-red"></path>
            </g>
        </g>
    </g>
</svg>