<?xml version="1.0" encoding="UTF-8"?>
<svg width="12px" height="11px" viewBox="0 0 12 11" version="1.1" xmlns="http://www.w3.org/2000/svg" xmlns:xlink="http://www.w3.org/1999/xlink">
    <!-- Generator: Sketch 41.2 (35397) - http://www.bohemiancoding.com/sketch -->
    <title>heart-icon-white</title>
    <desc>Created with Sketch.</desc>
    <defs></defs>
    <g id="AppStarter" stroke="none" stroke-width="1" fill="none" fill-rule="evenodd">
        <g id="Webflow-Assets" transform="translate(-263.000000, -428.000000)" fill="#FFFFFF">
            <g id="Heart-Icons" transform="translate(235.000000, 418.000000)">
                <path d="M34.9561713,20.6303738 C34.4009732,21.0787643 33.5970687,21.0787643 33.0418706,20.6303738 C32.8835957,20.5031472 32.6195542,20.2808663 32.2842516,19.9832731 C31.7284142,19.4882594 31.1710767,18.9596111 30.6474944,18.408296 C30.106445,17.8480868 29.606862,17.2511574 29.1525096,16.6220058 C28.4730956,15.7797821 28.0720921,14.756295 28.0025789,13.6870205 C27.9641895,12.6927319 28.3558221,11.728411 29.0819985,11.0291552 C30.4259949,9.7474025 32.542834,9.65301016 34.0012713,10.8097991 C35.4591363,9.65132058 37.5772758,9.74577091 38.9205441,11.0291552 C39.6431543,11.7263452 40.0337204,12.6863374 39.9977133,13.6767839 C39.9312156,14.7483445 39.5302363,15.7744791 38.8485328,16.6176186 C38.393082,17.2487537 37.8917135,17.8471859 37.3482971,18.408296 C36.8247149,18.9574175 36.2696277,19.4882594 35.7137903,19.9832731 C35.3784877,20.2808663 35.1136961,20.502416 34.9561713,20.6303738 Z" id="heart-icon-white"></path>
            </g>
        </g>
    </g>
</svg>