<?xml version="1.0" encoding="UTF-8"?>
<svg width="16px" height="16px" viewBox="0 0 16 16" version="1.1" xmlns="http://www.w3.org/2000/svg" xmlns:xlink="http://www.w3.org/1999/xlink">
    <!-- Generator: Sketch 41.2 (35397) - http://www.bohemiancoding.com/sketch -->
    <title>instagram-icon</title>
    <desc>Created with Sketch.</desc>
    <defs></defs>
    <g id="Webflow-Assets" stroke="none" stroke-width="1" fill="none" fill-rule="evenodd">
        <g id="Assets" transform="translate(-515.000000, -443.000000)" fill="#676B75">
            <g id="Dark-BG" transform="translate(235.000000, 422.000000)">
                <g id="Social" transform="translate(190.000000, 21.000000)">
                    <path d="M90,4.6138391 C90,2.06568613 92.058965,0 94.6278629,0 L101.372137,0 C103.928035,0 106,2.06902881 106,4.6138391 L106,11.337676 C106,13.885829 103.941035,15.9515152 101.372137,15.9515152 L94.6278629,15.9515152 C92.0719648,15.9515152 90,13.8824863 90,11.337676 L90,4.6138391 Z M91.4482759,4.75730851 C91.4482759,2.92735642 92.9259366,1.44388715 94.7548291,1.44388715 L101.245171,1.44388715 C103.07133,1.44388715 104.551724,2.9170701 104.551724,4.75730851 L104.551724,11.1942066 C104.551724,13.0241587 103.074063,14.507628 101.245171,14.507628 L94.7548291,14.507628 C92.9286702,14.507628 91.4482759,13.0344451 91.4482759,11.1942066 L91.4482759,4.75730851 Z M98,12.0323929 C100.247228,12.0323929 102.068966,10.2161754 102.068966,7.97575758 C102.068966,5.73533975 100.247228,3.91912226 98,3.91912226 C95.7527724,3.91912226 93.9310345,5.73533975 93.9310345,7.97575758 C93.9310345,10.2161754 95.7527724,12.0323929 98,12.0323929 Z M98,10.5885057 C99.4473669,10.5885057 100.62069,9.41873855 100.62069,7.97575758 C100.62069,6.53277661 99.4473669,5.3630094 98,5.3630094 C96.5526331,5.3630094 95.3793103,6.53277661 95.3793103,7.97575758 C95.3793103,9.41873855 96.5526331,10.5885057 98,10.5885057 Z M102.206897,4.6754441 C102.740137,4.6754441 103.172414,4.24447723 103.172414,3.71285266 C103.172414,3.1812281 102.740137,2.75026123 102.206897,2.75026123 C101.673656,2.75026123 101.241379,3.1812281 101.241379,3.71285266 C101.241379,4.24447723 101.673656,4.6754441 102.206897,4.6754441 Z" id="instagram-icon"></path>
                </g>
            </g>
        </g>
    </g>
</svg>