<?xml version="1.0" encoding="UTF-8"?>
<svg width="107px" height="40px" viewBox="0 0 107 40" version="1.1" xmlns="http://www.w3.org/2000/svg" xmlns:xlink="http://www.w3.org/1999/xlink">
    <!-- Generator: Sketch 41.2 (35397) - http://www.bohemiancoding.com/sketch -->
    <title>logo</title>
    <desc>Created with Sketch.</desc>
    <defs></defs>
    <g id="AppStarter" stroke="none" stroke-width="1" fill="none" fill-rule="evenodd">
        <g id="Webflow-Assets" transform="translate(-265.000000, -2614.000000)" fill="#FFFFFF">
            <g id="Dark-BG" transform="translate(235.000000, 2582.000000)">
                <g id="Logo" transform="translate(30.000000, 32.000000)">
                    <path d="M12.3545029,26.9890021 L11.0172627,23.8754278 L4.47077326,23.8754278 L3.13353305,26.9890021 L0,26.9890021 L6.46665418,12.9180416 L8.96150534,12.9180416 L15.4281595,26.9890021 L12.3545029,26.9890021 Z M5.48867253,21.5202883 L9.99936342,21.5202883 L7.74401797,16.2511627 L5.48867253,21.5202883 Z M24.6790676,17.5983823 C25.3377116,18.0308254 25.8499826,18.6362365 26.2158959,19.414634 C26.5818092,20.1930314 26.7647632,21.0878424 26.7647632,22.0990938 C26.7647632,23.1103452 26.5818092,23.9985033 26.2158959,24.7635948 C25.8499826,25.5286863 25.341038,26.1174653 24.689047,26.5299494 C24.037056,26.9424336 23.2852817,27.1486725 22.4337016,27.1486725 C21.7684046,27.1486725 21.1663199,27.0122887 20.6274293,26.7395169 C20.0885388,26.4667452 19.6727344,26.0842052 19.3800037,25.5918854 L19.3800037,30.5815877 L16.3662236,30.5815877 L16.3662236,17.1892267 L19.3400861,17.1892267 L19.3400861,18.5663846 C19.6328168,18.0607589 20.0519476,17.6649131 20.5974911,17.3788354 C21.1430346,17.0927577 21.7550986,16.949721 22.4337016,16.949721 C23.2719757,16.949721 24.0204236,17.1659393 24.6790676,17.5983823 Z M23.1921363,24.1448717 C23.5780085,23.6725109 23.7709418,22.9905917 23.7709418,22.0990938 C23.7709418,21.1942899 23.5780085,20.4924122 23.1921363,19.9934394 C22.8062641,19.4944667 22.2607287,19.2449841 21.5555139,19.2449841 C20.8502992,19.2449841 20.3047638,19.4878138 19.9188916,19.9734806 C19.5330194,20.4591474 19.3400861,21.1543723 19.3400861,22.0591762 C19.3400861,22.9506741 19.5330194,23.6392462 19.9188916,24.1249129 C20.3047638,24.6105797 20.8502992,24.8534095 21.5555139,24.8534095 C22.2607287,24.8534095 22.8062641,24.6172326 23.1921363,24.1448717 Z M36.9138176,17.5983823 C37.5724616,18.0308254 38.0847326,18.6362365 38.4506459,19.414634 C38.8165593,20.1930314 38.9995132,21.0878424 38.9995132,22.0990938 C38.9995132,23.1103452 38.8165593,23.9985033 38.4506459,24.7635948 C38.0847326,25.5286863 37.5757881,26.1174653 36.923797,26.5299494 C36.271806,26.9424336 35.5200317,27.1486725 34.6684516,27.1486725 C34.0031546,27.1486725 33.4010699,27.0122887 32.8621794,26.7395169 C32.3232888,26.4667452 31.9074845,26.0842052 31.6147538,25.5918854 L31.6147538,30.5815877 L28.6009736,30.5815877 L28.6009736,17.1892267 L31.5748362,17.1892267 L31.5748362,18.5663846 C31.8675668,18.0607589 32.2866976,17.6649131 32.8322412,17.3788354 C33.3777847,17.0927577 33.9898487,16.949721 34.6684516,16.949721 C35.5067258,16.949721 36.2551736,17.1659393 36.9138176,17.5983823 Z M35.4268864,24.1448717 C35.8127586,23.6725109 36.0056918,22.9905917 36.0056918,22.0990938 C36.0056918,21.1942899 35.8127586,20.4924122 35.4268864,19.9934394 C35.0410141,19.4944667 34.4954788,19.2449841 33.790264,19.2449841 C33.0850492,19.2449841 32.5395139,19.4878138 32.1536416,19.9734806 C31.7677694,20.4591474 31.5748362,21.1543723 31.5748362,22.0591762 C31.5748362,22.9506741 31.7677694,23.6392462 32.1536416,24.1249129 C32.5395139,24.6105797 33.0850492,24.8534095 33.790264,24.8534095 C34.4954788,24.8534095 35.0410141,24.6172326 35.4268864,24.1448717 Z M42.9313986,26.7395169 C41.9467591,26.4534392 41.1284561,26.0575935 40.4764651,25.5519678 L41.4744055,23.33654 C42.8316114,24.2812617 44.3551186,24.7536154 46.0449729,24.7536154 C46.9231648,24.7536154 47.5984311,24.6105787 48.070792,24.324501 C48.5431528,24.0384233 48.7793297,23.6425776 48.7793297,23.1369519 C48.7793297,22.6845499 48.5631114,22.3319478 48.1306684,22.079135 C47.6982254,21.8263221 46.9298189,21.580166 45.825426,21.3406591 C44.5879736,21.0878462 43.6000224,20.7818142 42.8615428,20.4225538 C42.1230631,20.0632935 41.5841807,19.6208776 41.2448792,19.095293 C40.9055778,18.5697084 40.7359296,17.9210536 40.7359296,17.1493091 C40.7359296,16.297729 40.9721065,15.5393018 41.4444673,14.8740049 C41.9168282,14.2087079 42.5787887,13.6864576 43.4303688,13.3072383 C44.281949,12.9280191 45.2665737,12.7384123 46.3842726,12.7384123 C47.3822181,12.7384123 48.3435578,12.8847754 49.2683205,13.1775061 C50.1930833,13.4702368 50.9282254,13.8627561 51.473769,14.3550758 L50.4758285,16.5705037 C49.1851524,15.625782 47.8279669,15.1534282 46.4042314,15.1534282 C45.5925691,15.1534282 44.9538936,15.3097706 44.4881857,15.6224602 C44.0224779,15.9351498 43.7896274,16.3642599 43.7896274,16.9098034 C43.7896274,17.229146 43.8794412,17.4919343 44.0590713,17.6981764 C44.2387015,17.9044184 44.5380807,18.0873724 44.9572177,18.2470436 C45.3763548,18.4067149 45.9717867,18.5730366 46.7435312,18.7460139 C48.5531389,19.145192 49.853775,19.657463 50.6454784,20.2828422 C51.4371818,20.9082213 51.8330275,21.7730944 51.8330275,22.8774874 C51.8330275,24.2080813 51.3207565,25.2559083 50.2961992,26.0209998 C49.2716419,26.7860913 47.8412749,27.1686313 46.0050552,27.1686313 C44.9405801,27.1686313 43.9160381,27.0255946 42.9313986,26.7395169 Z M60.0161393,24.8733683 L59.8564688,27.0688373 C59.4705966,27.1220611 59.0847301,27.1486725 58.6988579,27.1486725 C57.2085927,27.1486725 56.1208485,26.8226819 55.4355926,26.1706909 C54.7503367,25.5186999 54.4077139,24.5274222 54.4077139,23.1968283 L54.4077139,19.4445722 L52.5515447,19.4445722 L52.5515447,17.1892267 L54.4077139,17.1892267 L54.4077139,14.3151582 L57.4214941,14.3151582 L57.4214941,17.1892267 L59.8764276,17.1892267 L59.8764276,19.4445722 L57.4214941,19.4445722 L57.4214941,23.1768695 C57.4214941,24.3477922 57.9670294,24.9332447 59.0581165,24.9332447 C59.3641531,24.9332447 59.6834908,24.9132861 60.0161393,24.8733683 Z M68.9477064,17.9875791 C69.6462682,18.679488 69.9955439,19.7506 69.9955439,21.2009474 L69.9955439,26.9890021 L67.1414342,26.9890021 L67.1414342,25.532009 C66.9418451,26.0376347 66.6092016,26.4334804 66.1434937,26.7195581 C65.6777859,27.0056358 65.1322505,27.1486725 64.5068714,27.1486725 C63.8415744,27.1486725 63.2394897,27.0156151 62.7005991,26.7494963 C62.1617086,26.4833776 61.7359249,26.1108168 61.4232353,25.631803 C61.1105458,25.1527892 60.9542033,24.6205596 60.9542033,24.0350983 C60.9542033,23.3165776 61.1371573,22.7510836 61.5030706,22.3385995 C61.8689839,21.9261154 62.4577629,21.6267362 63.2694252,21.4404531 C64.0810875,21.2541699 65.1921168,21.1610298 66.6025463,21.1610298 L67.1214754,21.1610298 L67.1214754,20.8017712 C67.1214754,20.2163099 66.9950709,19.8038319 66.742258,19.564325 C66.4894452,19.3248181 66.0503557,19.2050665 65.4249766,19.2050665 C64.9459628,19.2050665 64.4137332,19.2915538 63.8282719,19.464531 C63.2428105,19.6375082 62.6839695,19.8770115 62.1517319,20.1830481 L61.3533795,18.1672084 C61.912229,17.821254 62.600801,17.5318541 63.4191163,17.2990002 C64.2374315,17.0661462 64.9991851,16.949721 65.7043999,16.949721 C67.1680533,16.949721 68.2491446,17.2956703 68.9477064,17.9875791 Z M66.5825875,24.4841715 C66.9418479,24.0916463 67.1214754,23.5827017 67.1214754,22.9573226 L67.1214754,22.6180228 L66.7821756,22.6180228 C65.7043945,22.6180228 64.9492938,22.7045102 64.5168508,22.8774874 C64.0844077,23.0504646 63.8681895,23.3631495 63.8681895,23.8155514 C63.8681895,24.1748118 63.9912676,24.4741909 64.2374274,24.7136978 C64.4835873,24.9532047 64.7929458,25.0729564 65.1655121,25.0729564 C65.7509734,25.0729564 66.2233272,24.8766967 66.5825875,24.4841715 Z M79.2564314,19.4246134 L77.5599326,19.6042427 C76.7216584,19.6840783 76.129553,19.9202552 75.7835986,20.3127804 C75.4376442,20.7053056 75.2646695,21.2275559 75.2646695,21.8795469 L75.2646695,26.9890021 L72.2508893,26.9890021 L72.2508893,17.1892267 L75.1449167,17.1892267 L75.1449167,18.8458079 C75.6372364,17.7148031 76.6551255,17.0960862 78.1986145,16.9896386 L79.0768021,16.9297622 L79.2564314,19.4246134 Z M87.6191724,24.8733683 L87.459502,27.0688373 C87.0736297,27.1220611 86.6877633,27.1486725 86.301891,27.1486725 C84.8116258,27.1486725 83.7238816,26.8226819 83.0386257,26.1706909 C82.3533698,25.5186999 82.0107471,24.5274222 82.0107471,23.1968283 L82.0107471,19.4445722 L80.1545778,19.4445722 L80.1545778,17.1892267 L82.0107471,17.1892267 L82.0107471,14.3151582 L85.0245272,14.3151582 L85.0245272,17.1892267 L87.4794608,17.1892267 L87.4794608,19.4445722 L85.0245272,19.4445722 L85.0245272,23.1768695 C85.0245272,24.3477922 85.5700626,24.9332447 86.6611496,24.9332447 C86.9671862,24.9332447 87.286524,24.9132861 87.6191724,24.8733683 Z M97.7782063,22.6579405 L91.3913874,22.6579405 C91.484529,23.4429909 91.7406644,24.0118113 92.1598015,24.3644186 C92.5789386,24.717026 93.1743705,24.8933271 93.946115,24.8933271 C94.4517407,24.8933271 94.9540323,24.8101662 95.4530051,24.643842 C95.9519778,24.4775177 96.4076994,24.2413409 96.8201835,23.9353043 L97.6185359,25.951144 C97.139522,26.3237103 96.5573959,26.6164366 95.87214,26.8293316 C95.1868842,27.0422266 94.4983121,27.1486725 93.8064033,27.1486725 C92.1564668,27.1486725 90.8558308,26.6929509 89.9044561,25.7814941 C88.9530814,24.8700373 88.4774012,23.629277 88.4774012,22.0591762 C88.4774012,21.0612307 88.6836402,20.176399 89.0961243,19.4046546 C89.5086084,18.6329101 90.0807552,18.0308254 90.8125819,17.5983823 C91.5444086,17.1659393 92.3760173,16.949721 93.3074331,16.949721 C94.6779448,16.949721 95.765689,17.3954633 96.5706984,18.2869612 C97.3757077,19.1784592 97.7782063,20.3892815 97.7782063,21.9194645 L97.7782063,22.6579405 Z M92.0200899,19.5743044 C91.6807884,19.9402178 91.471223,20.4691209 91.3913874,21.1610298 L95.2434376,21.1610298 C95.2035197,20.455815 95.0272187,19.9235854 94.7145291,19.564325 C94.4018395,19.2050647 93.9594237,19.0254372 93.3872683,19.0254372 C92.8151129,19.0254372 92.3593913,19.2083911 92.0200899,19.5743044 Z M106.6,19.4246134 L104.903501,19.6042427 C104.065227,19.6840783 103.473122,19.9202552 103.127167,20.3127804 C102.781213,20.7053056 102.608238,21.2275559 102.608238,21.8795469 L102.608238,26.9890021 L99.594458,26.9890021 L99.594458,17.1892267 L102.488485,17.1892267 L102.488485,18.8458079 C102.980805,17.7148031 103.998694,17.0960862 105.542183,16.9896386 L106.420371,16.9297622 L106.6,19.4246134 Z" id="AppStarter"></path>
                </g>
            </g>
        </g>
    </g>
</svg>