<?xml version="1.0" encoding="UTF-8"?>
<svg width="16px" height="16px" viewBox="0 0 16 16" version="1.1" xmlns="http://www.w3.org/2000/svg" xmlns:xlink="http://www.w3.org/1999/xlink">
    <!-- Generator: Sketch 41.2 (35397) - http://www.bohemiancoding.com/sketch -->
    <title>mail-icon</title>
    <desc>Created with Sketch.</desc>
    <defs></defs>
    <g id="Webflow-Assets" stroke="none" stroke-width="1" fill="none" fill-rule="evenodd">
        <g id="Assets" transform="translate(-425.000000, -443.000000)" fill="#BABDC3">
            <g id="Dark-BG" transform="translate(235.000000, 422.000000)">
                <g id="Social" transform="translate(190.000000, 21.000000)">
                    <path d="M13.993,15.0000123 L2.007,15.0000123 C0.901745579,14.9989231 0.00495082946,14.1052561 0,13.0000123 L0,3.00001227 C-3.25635425e-06,2.46836423 0.211671052,1.9585927 0.588259142,1.58331807 C0.964847232,1.20804344 1.47535522,0.998151499 2.007,1.00001227 L13.993,1.00001227 C15.0982544,1.00110148 15.9950492,1.8947684 16,3.00001227 L16,13.0000123 C16.0000033,13.5316603 15.7883289,14.0414318 15.4117409,14.4167065 C15.0351528,14.7919811 14.5246448,15.001873 13.993,15.0000123 L13.993,15.0000123 L13.993,15.0000123 Z M14,13.0000123 L14,4.47101227 L9.055,9.56101227 C8.77362743,9.84283095 8.39173648,10.0011926 7.9935,10.0011926 C7.59526352,10.0011926 7.21337257,9.84283095 6.932,9.56101227 L2,4.48301227 L2,13.0000123 L14,13.0000123 L14,13.0000123 L14,13.0000123 Z M12.629,3.00001227 L3.359,3.00001227 L7.994,7.77901227 L12.629,3.00001227 L12.629,3.00001227 Z" id="mail-icon"></path>
                </g>
            </g>
        </g>
    </g>
</svg>