<?xml version="1.0" encoding="UTF-8"?>
<svg width="16px" height="16px" viewBox="0 0 16 16" version="1.1" xmlns="http://www.w3.org/2000/svg" xmlns:xlink="http://www.w3.org/1999/xlink">
    <!-- Generator: Sketch 41.2 (35397) - http://www.bohemiancoding.com/sketch -->
    <title>Menu Icon</title>
    <desc>Created with Sketch.</desc>
    <defs></defs>
    <g id="Webflow-Assets" stroke="none" stroke-width="1" fill="none" fill-rule="evenodd">
        <g id="Phone" transform="translate(-1289.000000, -37.000000)" fill="#FFFFFF">
            <g id="Header-Phone">
                <g id="Nav-Panel" transform="translate(135.000000, 25.000000)">
                    <g id="Menu-Button" transform="translate(1154.000000, 12.000000)">
                        <path d="M1,14 L15,14 C15.5522847,14 16,13.5522847 16,13 C16,12.4477153 15.5522847,12 15,12 L1,12 C0.44771525,12 0,12.4477153 0,13 C0,13.5522847 0.44771525,14 1,14 L1,14 Z M1,9 L15,9 C15.5522847,9 16,8.55228475 16,8 C16,7.44771525 15.5522847,7 15,7 L1,7 C0.44771525,7 0,7.44771525 0,8 C0,8.55228475 0.44771525,9 1,9 L1,9 Z M1,4 L15,4 C15.5522847,4 16,3.55228475 16,3 C16,2.44771525 15.5522847,2 15,2 L1,2 C0.44771525,2 0,2.44771525 0,3 C0,3.55228475 0.44771525,4 1,4 L1,4 Z" id="Menu-Icon"></path>
                    </g>
                </g>
            </g>
        </g>
    </g>
</svg>