<svg xmlns="http://www.w3.org/2000/svg" width="1440" height="900"><path d="M-353,-402L112,-327L417,-337Z" fill="#4f4f4f" stroke="#4f4f4f" stroke-width="1.51"/><path d="M-162,1233L-357,1227L498,1318Z" fill="#979797" stroke="#979797" stroke-width="1.51"/><path d="M417,-337L694,-328L1021,-345Z" fill="#6e6e6e" stroke="#6e6e6e" stroke-width="1.51"/><path d="M-353,-402L417,-337L1021,-345Z" fill="#5c5c5c" stroke="#5c5c5c" stroke-width="1.51"/><path d="M-353,-402L1021,-345L1284,-358Z" fill="#696969" stroke="#696969" stroke-width="1.51"/><path d="M947,1221L754,1241L1307,1289Z" fill="#c4c4c4" stroke="#c4c4c4" stroke-width="1.51"/><path d="M754,1241L498,1318L1307,1289Z" fill="#c0c0c0" stroke="#c0c0c0" stroke-width="1.51"/><path d="M-353,-402L1284,-358L1525,-362Z" fill="#6f6f6f" stroke="#6f6f6f" stroke-width="1.51"/><path d="M1528,-98L1525,137L1794,166Z" fill="#9f9f9f" stroke="#9f9f9f" stroke-width="1.51"/><path d="M1534,677L1778,942L1798,670Z" fill="#c7c7c7" stroke="#c7c7c7" stroke-width="1.51"/><path d="M1558,1269L1307,1289L1805,1272Z" fill="#d4d4d4" stroke="#d4d4d4" stroke-width="1.51"/><path d="M1778,942L1524,1013L1805,1272Z" fill="#d2d2d2" stroke="#d2d2d2" stroke-width="1.51"/><path d="M1524,1013L1558,1269L1805,1272Z" fill="#d3d3d3" stroke="#d3d3d3" stroke-width="1.51"/><path d="M1528,-98L1794,166L1847,-108Z" fill="#9c9c9c" stroke="#9c9c9c" stroke-width="1.51"/><path d="M1528,-98L1847,-108L1848,-347Z" fill="#929292" stroke="#929292" stroke-width="1.51"/><path d="M1525,-362L1528,-98L1848,-347Z" fill="#8b8b8b" stroke="#8b8b8b" stroke-width="1.51"/><path d="M1584,449L1798,670L1850,469Z" fill="#bebebe" stroke="#bebebe" stroke-width="1.51"/><path d="M1794,166L1584,449L1850,469Z" fill="#b4b4b4" stroke="#b4b4b4" stroke-width="1.51"/><path d="M1778,942L1805,1272L1850,469Z" fill="#cfcfcf" stroke="#cfcfcf" stroke-width="1.51"/><path d="M1798,670L1778,942L1850,469Z" fill="#c6c6c6" stroke="#c6c6c6" stroke-width="1.51"/><path d="M1847,-108L1794,166L1850,469Z" fill="#aaaaaa" stroke="#aaaaaa" stroke-width="1.51"/><path d="M1525,137L1584,449L1794,166Z" fill="#ababab" stroke="#ababab" stroke-width="1.51"/><path d="M1584,449L1534,677L1798,670Z" fill="#bebebe" stroke="#bebebe" stroke-width="1.51"/><path d="M1534,677L1524,1013L1778,942Z" fill="#cacaca" stroke="#cacaca" stroke-width="1.51"/><path d="M1525,-362L1284,-358L1528,-98Z" fill="#878787" stroke="#878787" stroke-width="1.51"/><path d="M1267,989L1524,1013L1534,677Z" fill="#c7c7c7" stroke="#c7c7c7" stroke-width="1.51"/><path d="M1281,672L1267,989L1534,677Z" fill="#c1c1c1" stroke="#c1c1c1" stroke-width="1.51"/><path d="M1524,1013L1307,1289L1558,1269Z" fill="#d0d0d0" stroke="#d0d0d0" stroke-width="1.51"/><path d="M1525,137L1327,172L1584,449Z" fill="#a8a8a8" stroke="#a8a8a8" stroke-width="1.51"/><path d="M1327,172L1307,467L1584,449Z" fill="#aeaeae" stroke="#aeaeae" stroke-width="1.51"/><path d="M1307,467L1534,677L1584,449Z" fill="#b8b8b8" stroke="#b8b8b8" stroke-width="1.51"/><path d="M1267,989L1307,1289L1524,1013Z" fill="#cccccc" stroke="#cccccc" stroke-width="1.51"/><path d="M1246,-53L1327,172L1525,137Z" fill="#9b9b9b" stroke="#9b9b9b" stroke-width="1.51"/><path d="M1246,-53L1525,137L1528,-98Z" fill="#979797" stroke="#979797" stroke-width="1.51"/><path d="M1307,467L1281,672L1534,677Z" fill="#b9b9b9" stroke="#b9b9b9" stroke-width="1.51"/><path d="M1284,-358L1246,-53L1528,-98Z" fill="#8c8c8c" stroke="#8c8c8c" stroke-width="1.51"/><path d="M1037,710L1041,995L1267,989Z" fill="#bebebe" stroke="#bebebe" stroke-width="1.51"/><path d="M1037,710L1267,989L1281,672Z" fill="#bcbcbc" stroke="#bcbcbc" stroke-width="1.51"/><path d="M1022,-156L1246,-53L1284,-358Z" fill="#868686" stroke="#868686" stroke-width="1.51"/><path d="M1015,163L963,416L1307,467Z" fill="#a4a4a4" stroke="#a4a4a4" stroke-width="1.51"/><path d="M1267,989L1041,995L1307,1289Z" fill="#c6c6c6" stroke="#c6c6c6" stroke-width="1.51"/><path d="M1041,995L947,1221L1307,1289Z" fill="#c5c5c5" stroke="#c5c5c5" stroke-width="1.51"/><path d="M1015,163L1307,467L1327,172Z" fill="#a3a3a3" stroke="#a3a3a3" stroke-width="1.51"/><path d="M1246,-53L1015,163L1327,172Z" fill="#979797" stroke="#979797" stroke-width="1.51"/><path d="M1021,-345L1022,-156L1284,-358Z" fill="#7d7d7d" stroke="#7d7d7d" stroke-width="1.51"/><path d="M1037,710L1281,672L1307,467Z" fill="#b5b5b5" stroke="#b5b5b5" stroke-width="1.51"/><path d="M963,416L1037,710L1307,467Z" fill="#aeaeae" stroke="#aeaeae" stroke-width="1.51"/><path d="M1022,-156L1015,163L1246,-53Z" fill="#8d8d8d" stroke="#8d8d8d" stroke-width="1.51"/><path d="M125,1219L-162,1233L498,1318Z" fill="#9e9e9e" stroke="#9e9e9e" stroke-width="1.51"/><path d="M703,134L963,416L1015,163Z" fill="#969696" stroke="#969696" stroke-width="1.51"/><path d="M703,134L1015,163L1022,-156Z" fill="#8b8b8b" stroke="#8b8b8b" stroke-width="1.51"/><path d="M706,-148L703,134L1022,-156Z" fill="#818181" stroke="#818181" stroke-width="1.51"/><path d="M1021,-345L694,-328L1022,-156Z" fill="#787878" stroke="#787878" stroke-width="1.51"/><path d="M694,-328L706,-148L1022,-156Z" fill="#787878" stroke="#787878" stroke-width="1.51"/><path d="M963,416L754,473L1037,710Z" fill="#a8a8a8" stroke="#a8a8a8" stroke-width="1.51"/><path d="M754,473L730,762L1037,710Z" fill="#aaaaaa" stroke="#aaaaaa" stroke-width="1.51"/><path d="M670,965L947,1221L1041,995Z" fill="#bbbbbb" stroke="#bbbbbb" stroke-width="1.51"/><path d="M1037,710L730,762L1041,995Z" fill="#b5b5b5" stroke="#b5b5b5" stroke-width="1.51"/><path d="M730,762L670,965L1041,995Z" fill="#b4b4b4" stroke="#b4b4b4" stroke-width="1.51"/><path d="M670,965L754,1241L947,1221Z" fill="#bababa" stroke="#bababa" stroke-width="1.51"/><path d="M703,134L754,473L963,416Z" fill="#9a9a9a" stroke="#9a9a9a" stroke-width="1.51"/><path d="M405,-87L703,134L706,-148Z" fill="#7b7b7b" stroke="#7b7b7b" stroke-width="1.51"/><path d="M670,965L496,1005L754,1241Z" fill="#b2b2b2" stroke="#b2b2b2" stroke-width="1.51"/><path d="M496,1005L498,1318L754,1241Z" fill="#b1b1b1" stroke="#b1b1b1" stroke-width="1.51"/><path d="M703,134L496,195L754,473Z" fill="#8f8f8f" stroke="#8f8f8f" stroke-width="1.51"/><path d="M496,195L431,438L754,473Z" fill="#919191" stroke="#919191" stroke-width="1.51"/><path d="M429,720L730,762L754,473Z" fill="#a2a2a2" stroke="#a2a2a2" stroke-width="1.51"/><path d="M431,438L429,720L754,473Z" fill="#999999" stroke="#999999" stroke-width="1.51"/><path d="M405,-87L496,195L703,134Z" fill="#7e7e7e" stroke="#7e7e7e" stroke-width="1.51"/><path d="M429,720L670,965L730,762Z" fill="#a8a8a8" stroke="#a8a8a8" stroke-width="1.51"/><path d="M429,720L496,1005L670,965Z" fill="#a8a8a8" stroke="#a8a8a8" stroke-width="1.51"/><path d="M694,-328L417,-337L706,-148Z" fill="#6d6d6d" stroke="#6d6d6d" stroke-width="1.51"/><path d="M417,-337L405,-87L706,-148Z" fill="#6c6c6c" stroke="#6c6c6c" stroke-width="1.51"/><path d="M-353,-402L-105,-321L112,-327Z" fill="#484848" stroke="#484848" stroke-width="1.51"/><path d="M224,685L137,1057L429,720Z" fill="#979797" stroke="#979797" stroke-width="1.51"/><path d="M224,685L429,720L431,438Z" fill="#939393" stroke="#939393" stroke-width="1.51"/><path d="M149,132L431,438L496,195Z" fill="#808080" stroke="#808080" stroke-width="1.51"/><path d="M405,-87L149,132L496,195Z" fill="#757575" stroke="#757575" stroke-width="1.51"/><path d="M429,720L137,1057L496,1005Z" fill="#a0a0a0" stroke="#a0a0a0" stroke-width="1.51"/><path d="M137,1057L125,1219L496,1005Z" fill="#9f9f9f" stroke="#9f9f9f" stroke-width="1.51"/><path d="M496,1005L125,1219L498,1318Z" fill="#a7a7a7" stroke="#a7a7a7" stroke-width="1.51"/><path d="M192,-114L149,132L405,-87Z" fill="#6a6a6a" stroke="#6a6a6a" stroke-width="1.51"/><path d="M192,-114L405,-87L417,-337Z" fill="#666666" stroke="#666666" stroke-width="1.51"/><path d="M112,-327L192,-114L417,-337Z" fill="#5d5d5d" stroke="#5d5d5d" stroke-width="1.51"/><path d="M149,132L166,486L431,438Z" fill="#818181" stroke="#818181" stroke-width="1.51"/><path d="M166,486L224,685L431,438Z" fill="#8c8c8c" stroke="#8c8c8c" stroke-width="1.51"/><path d="M149,132L-152,211L166,486Z" fill="#737373" stroke="#737373" stroke-width="1.51"/><path d="M-152,211L-123,463L166,486Z" fill="#767676" stroke="#767676" stroke-width="1.51"/><path d="M-60,946L137,1057L224,685Z" fill="#929292" stroke="#929292" stroke-width="1.51"/><path d="M166,486L-140,761L224,685Z" fill="#868686" stroke="#868686" stroke-width="1.51"/><path d="M-140,761L-60,946L224,685Z" fill="#898989" stroke="#898989" stroke-width="1.51"/><path d="M-105,-321L-144,-52L112,-327Z" fill="#515151" stroke="#515151" stroke-width="1.51"/><path d="M-123,463L-140,761L166,486Z" fill="#7e7e7e" stroke="#7e7e7e" stroke-width="1.51"/><path d="M-144,-52L149,132L192,-114Z" fill="#626262" stroke="#626262" stroke-width="1.51"/><path d="M112,-327L-144,-52L192,-114Z" fill="#595959" stroke="#595959" stroke-width="1.51"/><path d="M-162,1233L125,1219L137,1057Z" fill="#969696" stroke="#969696" stroke-width="1.51"/><path d="M-144,-52L-152,211L149,132Z" fill="#646464" stroke="#646464" stroke-width="1.51"/><path d="M-60,946L-162,1233L137,1057Z" fill="#919191" stroke="#919191" stroke-width="1.51"/><path d="M-336,727L-140,761L-123,463Z" fill="#7a7a7a" stroke="#7a7a7a" stroke-width="1.51"/><path d="M-348,493L-336,727L-123,463Z" fill="#747474" stroke="#747474" stroke-width="1.51"/><path d="M-140,761L-431,1054L-60,946Z" fill="#858585" stroke="#858585" stroke-width="1.51"/><path d="M-431,1054L-162,1233L-60,946Z" fill="#888888" stroke="#888888" stroke-width="1.51"/><path d="M-431,1054L-357,1227L-162,1233Z" fill="#868686" stroke="#868686" stroke-width="1.51"/><path d="M-348,120L-152,211L-144,-52Z" fill="#5d5d5d" stroke="#5d5d5d" stroke-width="1.51"/><path d="M-336,727L-431,1054L-140,761Z" fill="#7e7e7e" stroke="#7e7e7e" stroke-width="1.51"/><path d="M-152,211L-348,493L-123,463Z" fill="#6e6e6e" stroke="#6e6e6e" stroke-width="1.51"/><path d="M-334,-52L-144,-52L-105,-321Z" fill="#505050" stroke="#505050" stroke-width="1.51"/><path d="M-353,-402L-334,-52L-105,-321Z" fill="#474747" stroke="#474747" stroke-width="1.51"/><path d="M-334,-52L-348,120L-144,-52Z" fill="#555555" stroke="#555555" stroke-width="1.51"/><path d="M-348,120L-348,493L-152,211Z" fill="#646464" stroke="#646464" stroke-width="1.51"/><path d="M-348,493L-431,1054L-336,727Z" fill="#767676" stroke="#767676" stroke-width="1.51"/><path d="M-353,-402L-348,120L-334,-52Z" fill="#4c4c4c" stroke="#4c4c4c" stroke-width="1.51"/><path d="M-353,-402L-431,1054L-348,120Z" fill="#5f5f5f" stroke="#5f5f5f" stroke-width="1.51"/><path d="M-348,120L-431,1054L-348,493Z" fill="#6f6f6f" stroke="#6f6f6f" stroke-width="1.51"/></svg>