<?xml version="1.0" encoding="UTF-8"?>
<svg width="88px" height="15px" viewBox="0 0 88 15" version="1.1" xmlns="http://www.w3.org/2000/svg" xmlns:xlink="http://www.w3.org/1999/xlink">
    <!-- Generator: Sketch 41.2 (35397) - http://www.bohemiancoding.com/sketch -->
    <title>stars</title>
    <desc>Created with Sketch.</desc>
    <defs>
        <linearGradient x1="0%" y1="0%" x2="100%" y2="100%" id="linearGradient-1">
            <stop stop-color="#FF8E64" offset="0%"></stop>
            <stop stop-color="#FFE641" offset="100%"></stop>
        </linearGradient>
    </defs>
    <g id="AppStarter" stroke="none" stroke-width="1" fill="none" fill-rule="evenodd">
        <g id="Webflow-Assets" transform="translate(-235.000000, -2534.000000)" fill="url(#linearGradient-1)">
            <path d="M310.686472,2549 C310.471208,2549.00039 310.261197,2548.93361 310.085774,2548.809 C309.747416,2548.56823 309.59484,2548.14255 309.70333,2547.742 L310.866681,2543.499 L307.378629,2540.737 C307.05133,2540.4805 306.919688,2540.04686 307.049247,2539.652 C307.182319,2539.25588 307.545437,2538.98217 307.963308,2538.963 L312.447517,2538.735 L314.049378,2534.635 C314.205247,2534.24865 314.580457,2533.99562 314.997479,2533.99562 C315.414501,2533.99562 315.789711,2534.24865 315.94558,2534.635 L317.553448,2538.735 L322.036655,2538.963 C322.454427,2538.98245 322.817405,2539.25605 322.950717,2539.652 C323.08019,2540.04666 322.949015,2540.48007 322.622336,2540.737 L319.140291,2543.495 L320.304644,2547.738 C320.413228,2548.13878 320.260172,2548.56468 319.921198,2548.805 C319.579509,2549.04763 319.124762,2549.05949 318.770862,2548.835 L315.004487,2546.435 L311.238112,2548.835 C311.073862,2548.94166 310.882383,2548.99894 310.686472,2549 L310.686472,2549 Z M292.686472,2549 C292.471208,2549.00039 292.261197,2548.93361 292.085774,2548.809 C291.747416,2548.56823 291.59484,2548.14255 291.70333,2547.742 L292.866681,2543.499 L289.378629,2540.737 C289.05133,2540.4805 288.919688,2540.04686 289.049247,2539.652 C289.182319,2539.25588 289.545437,2538.98217 289.963308,2538.963 L294.447517,2538.735 L296.049378,2534.635 C296.205247,2534.24865 296.580457,2533.99562 296.997479,2533.99562 C297.414501,2533.99562 297.789711,2534.24865 297.94558,2534.635 L299.553448,2538.735 L304.036655,2538.963 C304.454427,2538.98245 304.817405,2539.25605 304.950717,2539.652 C305.08019,2540.04666 304.949015,2540.48007 304.622336,2540.737 L301.140291,2543.495 L302.304644,2547.738 C302.413228,2548.13878 302.260172,2548.56468 301.921198,2548.805 C301.579509,2549.04763 301.124762,2549.05949 300.770862,2548.835 L297.004487,2546.435 L293.238112,2548.835 C293.073862,2548.94166 292.882383,2548.99894 292.686472,2549 L292.686472,2549 Z M274.686472,2549 C274.471208,2549.00039 274.261197,2548.93361 274.085774,2548.809 C273.747416,2548.56823 273.59484,2548.14255 273.70333,2547.742 L274.866681,2543.499 L271.378629,2540.737 C271.05133,2540.4805 270.919688,2540.04686 271.049247,2539.652 C271.182319,2539.25588 271.545437,2538.98217 271.963308,2538.963 L276.447517,2538.735 L278.049378,2534.635 C278.205247,2534.24865 278.580457,2533.99562 278.997479,2533.99562 C279.414501,2533.99562 279.789711,2534.24865 279.94558,2534.635 L281.553448,2538.735 L286.036655,2538.963 C286.454427,2538.98245 286.817405,2539.25605 286.950717,2539.652 C287.08019,2540.04666 286.949015,2540.48007 286.622336,2540.737 L283.140291,2543.495 L284.304644,2547.738 C284.413228,2548.13878 284.260172,2548.56468 283.921198,2548.805 C283.579509,2549.04763 283.124762,2549.05949 282.770862,2548.835 L279.004487,2546.435 L275.238112,2548.835 C275.073862,2548.94166 274.882383,2548.99894 274.686472,2549 L274.686472,2549 Z M256.686472,2549 C256.471208,2549.00039 256.261197,2548.93361 256.085774,2548.809 C255.747416,2548.56823 255.59484,2548.14255 255.70333,2547.742 L256.866681,2543.499 L253.378629,2540.737 C253.05133,2540.4805 252.919688,2540.04686 253.049247,2539.652 C253.182319,2539.25588 253.545437,2538.98217 253.963308,2538.963 L258.447517,2538.735 L260.049378,2534.635 C260.205247,2534.24865 260.580457,2533.99562 260.997479,2533.99562 C261.414501,2533.99562 261.789711,2534.24865 261.94558,2534.635 L263.553448,2538.735 L268.036655,2538.963 C268.454427,2538.98245 268.817405,2539.25605 268.950717,2539.652 C269.08019,2540.04666 268.949015,2540.48007 268.622336,2540.737 L265.140291,2543.495 L266.304644,2547.738 C266.413228,2548.13878 266.260172,2548.56468 265.921198,2548.805 C265.579509,2549.04763 265.124762,2549.05949 264.770862,2548.835 L261.004487,2546.435 L257.238112,2548.835 C257.073862,2548.94166 256.882383,2548.99894 256.686472,2549 L256.686472,2549 Z M238.686472,2549 C238.471208,2549.00039 238.261197,2548.93361 238.085774,2548.809 C237.747416,2548.56823 237.59484,2548.14255 237.70333,2547.742 L238.866681,2543.499 L235.378629,2540.737 C235.05133,2540.4805 234.919688,2540.04686 235.049247,2539.652 C235.182319,2539.25588 235.545437,2538.98217 235.963308,2538.963 L240.447517,2538.735 L242.049378,2534.635 C242.205247,2534.24865 242.580457,2533.99562 242.997479,2533.99562 C243.414501,2533.99562 243.789711,2534.24865 243.94558,2534.635 L245.553448,2538.735 L250.036655,2538.963 C250.454427,2538.98245 250.817405,2539.25605 250.950717,2539.652 C251.08019,2540.04666 250.949015,2540.48007 250.622336,2540.737 L247.140291,2543.495 L248.304644,2547.738 C248.413228,2548.13878 248.260172,2548.56468 247.921198,2548.805 C247.579509,2549.04763 247.124762,2549.05949 246.770862,2548.835 L243.004487,2546.435 L239.238112,2548.835 C239.073862,2548.94166 238.882383,2548.99894 238.686472,2549 L238.686472,2549 Z" id="stars"></path>
        </g>
    </g>
</svg>