<?xml version="1.0" encoding="UTF-8"?>
<svg width="16px" height="16px" viewBox="0 0 16 16" version="1.1" xmlns="http://www.w3.org/2000/svg" xmlns:xlink="http://www.w3.org/1999/xlink">
    <!-- Generator: Sketch 41.2 (35397) - http://www.bohemiancoding.com/sketch -->
    <title>success-icon</title>
    <desc>Created with Sketch.</desc>
    <defs>
        <linearGradient x1="0%" y1="0%" x2="100%" y2="100%" id="linearGradient-1">
            <stop stop-color="#7956EC" offset="0%"></stop>
            <stop stop-color="#2FB9F8" offset="100%"></stop>
        </linearGradient>
    </defs>
    <g id="Webflow-Assets" stroke="none" stroke-width="1" fill="none" fill-rule="evenodd">
        <g id="Assets" transform="translate(-850.000000, -434.000000)" fill="url(#linearGradient-1)">
            <path d="M858,450 C862.418278,450 866,446.418278 866,442 C866,437.581722 862.418278,434 858,434 C853.581722,434 850,437.581722 850,442 C850,446.418278 853.581722,450 858,450 L858,450 L858,450 L858,450 L858,450 Z M858,448 C861.313708,448 864,445.313709 864,442 C864,438.686291 861.313708,436 858,436 C854.686292,436 852,438.686291 852,442 C852,445.313709 854.686292,448 858,448 L858,448 L858,448 L858,448 L858,448 Z M857.000375,445 C857.401331,445 857.77829,444.842372 858.060259,444.557046 L861.707532,440.724179 C862.097489,440.329112 862.097489,439.690619 861.707532,439.295552 C861.316575,438.901483 860.683644,438.901483 860.293687,439.295552 L857.000375,442.77226 L855.707063,441.295552 C855.317106,440.901483 854.684175,440.901483 854.293218,441.295552 C853.902261,441.690619 853.902261,442.329112 854.293218,442.724179 L855.939491,444.557046 C856.22346,444.842372 856.598419,445 857.000375,445 L857.000375,445 L857.000375,445 L857.000375,445 L857.000375,445 Z" id="success-icon"></path>
        </g>
    </g>
</svg>