<?xml version="1.0" encoding="UTF-8"?>
<svg width="16px" height="16px" viewBox="0 0 16 16" version="1.1" xmlns="http://www.w3.org/2000/svg" xmlns:xlink="http://www.w3.org/1999/xlink">
    <!-- Generator: Sketch 41.2 (35397) - http://www.bohemiancoding.com/sketch -->
    <title>twitter-icon</title>
    <desc>Created with Sketch.</desc>
    <defs></defs>
    <g id="Webflow-Assets" stroke="none" stroke-width="1" fill="none" fill-rule="evenodd">
        <g id="Assets" transform="translate(-455.000000, -443.000000)" fill="#676B75">
            <g id="Dark-BG" transform="translate(235.000000, 422.000000)">
                <g id="Social" transform="translate(190.000000, 21.000000)">
                    <path d="M44.3709819,5.64658731 C44.3709819,9.9732664 41.0695852,14.9606061 35.0318115,14.9606061 C33.2424203,14.9596647 31.4927276,14.448405 30,13.4903124 C30.2598466,13.518555 30.5210273,13.5336884 30.7824891,13.5356519 C32.2674723,13.5356782 33.7072025,13.0393654 34.859704,12.1301289 C33.4403253,12.0961897 32.2033373,11.1823424 31.7911194,9.8631563 C31.9949968,9.90228904 32.2023505,9.92181462 32.410173,9.92144988 C32.7034566,9.92245969 32.9954146,9.88320897 33.2773817,9.80486272 C31.7272796,9.47785811 30.6267966,8.13883084 30.6424015,6.59871579 C31.0983371,6.80808485 31.6083486,6.94792082 32.130665,6.96790847 C30.6833518,5.98180955 30.2437042,4.08987316 31.1146967,2.59588993 C32.7567657,4.62943133 35.2228016,5.87597549 37.8802585,6.01577999 C37.8236955,5.77130504 37.7952814,5.52148521 37.7955389,5.27091757 C37.7718064,3.4875244 39.2415119,2.02310229 41.0782572,2 C41.9903026,2.00041523 42.8598576,2.37435162 43.4730873,3.02985326 C44.2111204,2.88847579 44.9174175,2.62091818 45.5590577,2.23965139 C45.3188954,2.99213487 44.8054286,3.63431375 44.1141547,4.04675238 C44.7660492,3.97097044 45.4020835,3.79839468 46,3.53506429 C45.5616715,4.18819968 45.0073959,4.76058658 44.3629769,5.22557812 C44.3689806,5.36807354 44.3709819,5.51056896 44.3709819,5.64658731 Z" id="twitter-icon"></path>
                </g>
            </g>
        </g>
    </g>
</svg>